<?xml version="1.0" encoding="UTF-8" standalone="no"?>
<svg xmlns:inkscape="http://www.inkscape.org/namespaces/inkscape" xmlns:sodipodi="http://sodipodi.sourceforge.net/DTD/sodipodi-0.dtd" xmlns="http://www.w3.org/2000/svg" xmlns:svg="http://www.w3.org/2000/svg" width="53.3333in" height="30in" viewBox="0 0 3840 2160" version="1.1" id="svg1" sodipodi:docname="cat-plain.svg" xml:space="preserve" inkscape:version="1.3.2 (1:1.3.2+202311252150+091e20ef0f)">
  <defs id="defs1">
    <inkscape:path-effect effect="powerstroke" id="path-effect1" is_visible="true" lpeversion="1.3" scale_width="1" interpolator_type="CentripetalCatmullRom" interpolator_beta="0.2" start_linecap_type="zerowidth" end_linecap_type="zerowidth" offset_points="28.5,0.5 | 60.5,0.5 | 67.5,0.5 | 74,0.5 | 80,0.5 | 85.5,0.5 | 90,0.5 | 93,0.5 | 95,0.5 | 103.5,0.5 | 117,0.5 | 126.5,0.5" linejoin_type="round" miter_limit="4" not_jump="false" sort_points="true" message="&lt;b&gt;Ctrl + click&lt;/b&gt; on existing node and move it"/>
  </defs>
  <sodipodi:namedview id="namedview1" pagecolor="#ffffff" bordercolor="#666666" borderopacity="1.0" inkscape:showpageshadow="2" inkscape:pageopacity="0.0" inkscape:pagecheckerboard="0" inkscape:deskcolor="#d1d1d1" inkscape:document-units="in" showgrid="false" inkscape:zoom="0.5848863" inkscape:cx="2932.1938" inkscape:cy="1578.0845" inkscape:window-width="1896" inkscape:window-height="994" inkscape:window-x="10" inkscape:window-y="1424" inkscape:window-maximized="1" inkscape:current-layer="svg1"/>
  <circle style="fill:#f0bae8;stroke:none;stroke-width:0.800003;fill-opacity:1" id="circle" cx="1919.9994" cy="1080.0004" r="367.2001"/>
  <g id="g13" transform="translate(0.01427946,-0.22312311)" inkscape:label="cat" style="stroke:none;opacity:1">
    <path id="Selection #1" fill="none" stroke="#000000" stroke-width="1" d="m 1741,1042 c 0,0 -30,-5.37 -30,-5.37 -3.99,-0.08 -8.69,2.79 -6.72,7.26 1.68,3.82 6.2,3.98 9.72,4.53 9.6,1.51 14.97,2.99 24,6.42 -6.17,1.91 -12.79,1.26 -19,0 -3.56,-0.8 -8.52,-2.7 -11.68,0 -4.42,3.54 -0.23,8.35 3.7,10.03 6.4,2.75 18.22,3.77 24.98,2.13 -4.29,2.92 -7.8,4.27 -13,4.83 -3.15,0.34 -8.14,-0.42 -10.55,1.77 -3.25,2.94 -1.31,7.6 3.57,8.97 4.9,1.38 14.98,-0.31 19.98,-1.57 0,0 -5.09,64 -5.09,64 0,0 -1.91,27 -1.91,27 0,0 0,35 0,35 0.07,46.08 39.19,83.93 85,84 0,0 214,0 214,0 9.83,-0.02 19.73,-2.13 29,-5.34 7.31,-2.53 13.67,-5.95 20,-10.38 17.74,-12.42 30.52,-31.95 34.54,-53.28 2.46,-13.01 1.48,-37.77 1.46,-52 0,0 -0.91,-12 -0.91,-12 0,0 -3.09,-41 -3.09,-41 0,0 0,-9 0,-9 0,0 -3,-25.87 -3,-25.87 4.66,0.48 14.7,1.87 18.96,0 3.17,-1.16 5.64,-4.62 3.26,-7.82 -1.76,-2.36 -4.62,-2.18 -7.22,-2.34 0,0 -16,-1.97 -16,-1.97 0,0 0,-2 0,-2 5.94,0 18.68,-0.94 23.98,-3.14 3.07,-1.28 6.32,-4.03 5.18,-7.75 -0.86,-2.81 -3.48,-3.77 -6.16,-3.71 -5,0.09 -10.11,2.6 -24,2.6 6.24,-4.75 10.46,-5.65 18,-6.92 3.59,-0.6 10.06,-0.91 12.55,-3.51 3.83,-3.99 0.21,-8.71 -4.55,-9.26 -4.93,-0.56 -22.53,4.11 -28,5.69 -4.67,-35.4 -10.86,-70.39 -19.63,-105 -4.37,-17.27 -12.63,-44.95 -23.13,-59 -1.53,-2.05 -3.22,-4.01 -5.25,-5.58 -10.42,-8.04 -20.2,1.83 -26.86,9.58 -10.4,12.11 -17.64,27.14 -23.18,42 -2.72,7.29 -5.29,14.16 -5.95,22 0,0 -26,-2 -26,-2 0,0 -13,-1 -13,-1 0,0 -9,0 -9,0 0,0 -12,-1 -12,-1 0,0 -33,0 -33,0 0,0 -12,0.91 -12,0.91 0,0 -24,1.18 -24,1.18 0,0 -25,1.91 -25,1.91 -1.58,-19.34 -16.82,-49.19 -29.08,-64 -8.07,-9.73 -18.71,-18.75 -29.74,-6.96 -9.55,10.21 -15.44,29.73 -19.85,42.96 -8.22,24.66 -13.15,50.45 -17.75,76 -2.2,12.2 -6.55,36.37 -6.58,48 z" inkscape:label="body" style="opacity:1;fill:#24273a;fill-opacity:1;stroke:none"/>
    <g id="g16" inkscape:label="right-eye" style="stroke:none">
      <path id="Selection #5" fill="none" stroke="#000000" stroke-width="1" d="m 1977,995.3 c 17.93,-1.78 35.04,6.63 44.9,21.7 13.37,20.44 13.37,51.7 -10.9,64.18 -4.98,2.56 -10.47,3.88 -16,4.53 -24.97,2.96 -50.71,-22.19 -51,-46.71 -0.17,-14.61 1.12,-26.56 14,-36.07 5.6,-4.14 12.22,-6.35 19,-7.63 z" transform="translate(-1.4795155e-6)" inkscape:label="right-eye" style="fill:#f0bae8;fill-opacity:1;stroke:none"/>
      <path id="Selection #7" fill="none" stroke="#000000" stroke-width="1" d="m 1972,1010.53 c -24.31,7.25 -25.16,36.89 -9.99,49.08 7.14,5.73 17.36,6.48 25.99,4.35 18.01,-4.46 25.67,-27.04 15.2,-41.96 -7.5,-10.69 -18.88,-13.48 -31.2,-11.47 z" transform="translate(-1.4795155e-6)" inkscape:label="right-iris" style="fill:#24273a;fill-opacity:1;stroke:none"/>
      <path id="pupil-right" fill="none" stroke="#000000" stroke-width="1" d="m 1977.04,1014.62 c 9.46,-1.32 10.7,9.15 4.83,11.64 -7.05,2.99 -14.18,-6.25 -4.83,-11.64 z" inkscape:label="right-pupil" style="fill:#f0bae8;fill-opacity:1;stroke:none"/>
    </g>
    <g id="g15" inkscape:label="left-eye" style="stroke:none">
      <path id="Selection #4" fill="none" stroke="#000000" stroke-width="1" d="m 1853,995.29 c 5.49,-0.52 9.61,-0.36 15,0.95 26.28,6.4 33.23,33.71 25.14,56.76 -6.75,19.21 -23.43,30.38 -43.14,32.71 -4.72,0.56 -9.49,-0.37 -14,-1.75 -19.56,-5.97 -29.28,-24.25 -26.71,-43.96 3.14,-24.06 20,-40.77 43.71,-44.71 z" transform="translate(-1.4795155e-6)" inkscape:label="left-eye" style="fill:#f0bae8;fill-opacity:1;stroke:none"/>
      <path id="Selection #6" fill="none" stroke="#000000" stroke-width="1" d="m 1853,1010.53 c -7.33,2.16 -13.85,6.62 -17.59,13.47 -9.92,18.2 2.81,40.51 23.59,40.99 7.5,0.17 14.17,-1 19.96,-6.2 13.27,-11.93 11.87,-36.2 -3.96,-45.26 -6.63,-3.8 -14.61,-4.21 -22,-3 z" transform="translate(-1.480915e-6)" inkscape:label="left-iris" style="fill:#24273a;fill-opacity:1;stroke:none"/>
      <path id="pupil-left" fill="none" stroke="#000000" stroke-width="1" d="m 1859.04,1014.62 c 9.54,-1.33 10.55,9.11 4.75,11.64 -7.04,3.07 -14.18,-6.21 -4.75,-11.64 z" inkscape:label="left-pupil" style="fill:#f0bae8;fill-opacity:1;stroke:none"/>
    </g>
    <path id="Selection #2" fill="none" stroke="#000000" stroke-width="1" d="m 1782,958 c 1.34,-10.18 3.76,-27.88 7.45,-37 1.48,-3.65 4.11,-9.88 8.56,-10.42 3.96,-0.49 6.54,3.43 8.19,6.42 3.19,5.78 5.75,13.62 7.51,20 0.71,2.6 1.92,7.04 0.72,9.61 -1.29,2.75 -5.74,3.6 -8.43,4.39 z" inkscape:label="ear-left" style="fill:#f0bae8;fill-opacity:1;stroke:none"/>
    <path id="Selection #3" fill="none" stroke="#000000" stroke-width="1" d="m 2056,958 c 0,0 -23,-6.98 -23,-6.98 -2.34,-0.72 -6.53,-1.49 -7.98,-3.53 -1.43,-2.02 -0.99,-6.18 -0.5,-8.49 0.97,-4.59 6.03,-19.06 8.36,-22.98 1.59,-2.68 3.67,-5.57 7.13,-5.57 5.28,0 7.79,6.43 9.3,10.55 3.81,10.46 6.66,25.88 6.69,37 z" inkscape:label="ear-right" style="opacity:1;mix-blend-mode:normal;fill:#f0bae8;fill-opacity:1;stroke:none"/>
    <path id="Selection #8" fill="none" stroke="#000000" stroke-width="1" d="m 1917.02,1056.39 c 4,-0.51 11.94,-0.51 11.06,5.63 -0.34,2.37 -2.61,4.83 -2.65,7.98 -0.05,5.5 6.82,12.76 12.57,11.53 7.02,-1.51 6.52,-9.9 11,-9.9 4.33,0 4.88,7.37 1.91,12.33 -3.28,5.49 -9.85,7.37 -15.91,6.94 -7.67,-0.53 -11.05,-5.07 -15,-5.07 -2.53,0 -5.58,2.21 -8,3.41 -5.02,1.9 -11.97,2.62 -17,0 -4.35,-1.92 -7.67,-6.32 -7.85,-11.24 -0.11,-2.7 1.07,-7.24 4.75,-6.26 3.91,1.05 3.39,8.35 10.1,9.79 6.04,1.29 13.31,-6.7 12.48,-12.53 -0.44,-3.12 -3.25,-5.93 -2.52,-8.79 0.63,-2.47 2.98,-3.11 5.06,-3.82 z" inkscape:label="nose" style="fill:#f0bae8;fill-opacity:1;stroke:none"/>
    <g id="g14" inkscape:label="terminal" style="display:inline;fill:#f0bae8;fill-opacity:1;stroke:none">
      <path id="Selection #10" fill="none" stroke="#000000" stroke-width="1" d="m 1927.04,1212.21 c 0,0 49.96,0 49.96,0 2.77,-0.21 6.43,-0.42 8.89,0.96 4.05,2.28 5.04,7.09 0.96,9.98 -2.93,2.07 -7.4,1.84 -10.85,1.85 0,0 -43,0 -43,0 -2.81,-0.02 -6.39,0.16 -8.69,-1.74 -4.38,-3.62 -1.72,-8.87 2.73,-11.05 z" inkscape:label="underscore" style="fill:#f0bae8;fill-opacity:1;stroke:none"/>
      <path id="Selection #9" fill="none" stroke="#000000" stroke-width="1" d="m 1860.04,1122.47 c 6.52,-0.33 10.23,4.01 14.96,7.94 0,0 25,20.79 25,20.79 3.78,3.05 9.71,7.31 9.45,12.8 -0.24,4.96 -5.95,9.31 -9.45,12.25 0,0 -25,20.36 -25,20.36 -3.6,2.93 -8.28,7.55 -13,8.15 -7.23,0.92 -10.1,-5.88 -5.57,-11.67 0,0 25.57,-20.89 25.57,-20.89 2.01,-1.6 7.96,-5.63 7.96,-8.27 0,-2.84 -5.84,-6.83 -7.96,-8.53 0,0 -22.95,-18.57 -22.95,-18.57 -5.02,-4.89 -6.57,-11.19 0.99,-14.36 z" inkscape:label="chevron" transform="translate(-1.4795155e-6)" style="fill:#f0bae8;fill-opacity:1;stroke:none"/>
    </g>
  </g>
</svg>
