<?xml version="1.0" encoding="UTF-8" standalone="no"?>
<svg
   width="53.3333in"
   height="30in"
   viewBox="0 0 4800 2700"
   version="1.1"
   id="svg1"
   xmlns="http://www.w3.org/2000/svg"
   xmlns:svg="http://www.w3.org/2000/svg">
  <defs
     id="defs1" />
  <path
     id="outline"
     d="m 2160,1858 c 0.52,-11.07 5.72,-22.68 9.58,-33 0,0 16.73,-46 16.73,-46 0,0 64.64,-174 64.64,-174 0,0 122,-330 122,-330 0,0 85,-232 85,-232 0,0 35.1,-96 35.1,-96 0,0 21.29,-58 21.29,-58 0,0 11.61,-31 11.61,-31 1.58,-4.33 3.46,-11.49 7.26,-14.26 2.79,-2.03 6.51,-1.73 9.79,-1.74 0,0 55,0 55,0 10.05,0 32.82,0.35 42,2 -1.44,10.19 -7.29,25.01 -10.95,35 0,0 -19,52 -19,52 0,0 -62,167 -62,167 0,0 -131,354 -131,354 0,0 -62.63,171 -62.63,171 0,0 -32.47,89 -32.47,89 0,0 -33.29,91 -33.29,91 0,0 -13.24,36 -13.24,36 -1.47,3.94 -4.46,13.86 -7.07,16.57 -2.73,2.84 -6.73,2.42 -10.35,2.43 z M 2622,855 c 0,0 -18,-1 -18,-1 0,0 -36,0 -36,0 0,0 -14,0.99 -14,0.99 -3.51,0.08 -7.81,-0.46 -10.78,1.75 -3.53,2.62 -5.74,11.06 -7.27,15.26 0,0 -13.64,37 -13.64,37 0,0 -24.26,66 -24.26,66 0,0 -36.47,100 -36.47,100 0,0 -52.63,144 -52.63,144 0,0 -138.37,374 -138.37,374 0,0 -63.63,171 -63.63,171 0,0 -19,51 -19,51 -3.65,9.93 -8.46,19.42 -9.95,30 0,0 20,1 20,1 0,0 34,0 34,0 0,0 14,-0.99 14,-0.99 3.51,-0.08 7.81,0.46 10.78,-1.75 3.53,-2.62 5.74,-11.06 7.27,-15.26 0,0 13.64,-37 13.64,-37 0,0 24.26,-66 24.26,-66 0,0 36.47,-100 36.47,-100 0,0 52.63,-144 52.63,-144 0,0 54.9,-148 54.9,-148 0,0 83.47,-226 83.47,-226 0,0 61,-164 61,-164 0,0 21.63,-58 21.63,-58 3.56,-9.69 8.51,-19.78 9.95,-30 z m -937,496 c 7.3,2.08 27.17,13.46 35,17.69 0,0 57,30 57,30 0,0 51,26.62 51,26.62 0,0 121,63.95 121,63.95 0,0 59,31.49 59,31.49 4.76,2.39 16.32,7.87 18.69,12.34 1.27,2.4 1.27,5.27 1.31,7.91 0,0 0,111 0,111 0,2.35 0.08,5.77 -0.57,7.98 -1.97,6.66 -7.04,6.03 -12.43,4.27 -7.9,-2.57 -18.21,-9.11 -26,-13 0,0 -86,-43.99 -86,-43.99 0,0 -31,-15.57 -31,-15.57 0,0 -111,-56.95 -111,-56.95 0,0 -160,-81.99 -160,-81.99 0,0 -61,-31.5 -61,-31.5 -5.22,-2.61 -18.27,-8.65 -21.07,-13.29 -2.06,-3.42 -1.92,-8.1 -1.93,-11.96 0,0 0,-94 0,-94 0.05,-3.76 0.21,-7.76 2.56,-10.9 2.14,-2.86 7.25,-5.47 10.44,-7.24 0,0 26,-13.11 26,-13.11 0,0 126,-65 126,-65 0,0 157,-80.49 157,-80.49 0,0 105,-53.95 105,-53.95 0,0 57,-28.56 57,-28.56 5.11,-2.55 16.44,-9.8 21.81,-8.44 5.41,1.37 5.18,10.32 5.19,14.69 0,0 0,109 0,109 -0.01,3.5 0.28,6.71 -1.89,9.7 -2.67,3.68 -8.19,5.98 -12.11,8.16 0,0 -29,15.4 -29,15.4 0,0 -87,46.43 -87,46.43 0,0 -51,26.73 -51,26.73 0,0 -93,48.89 -93,48.89 0,0 -35,18.55 -35,18.55 -10.14,5.62 -23.28,13.4 -34,17.14 z m 1430,-2 c -11.79,-4.11 -23.78,-11.95 -35,-17.74 0,0 -66,-34.95 -66,-34.95 0,0 -131,-69 -131,-69 0,0 -32,-16.89 -32,-16.89 0,0 -61,-32.42 -61,-32.42 -8.63,-4.9 -17.8,-6.56 -18,-18 0,0 0,-110 0,-110 0.01,-4.39 -0.09,-12.42 4.22,-14.97 3.15,-1.87 7.76,-0.08 10.78,1.28 0,0 26,13.44 26,13.44 0,0 74,37.99 74,37.99 0,0 45,22.52 45,22.52 0,0 176,90.48 176,90.48 0,0 72,37 72,37 0,0 23,11.68 23,11.68 0,0 27,13.84 27,13.84 0,0 33,16.99 33,16.99 4.97,2.5 16.99,8.36 19.55,12.92 1.66,2.97 1.44,6.54 1.45,9.83 0,0 0,96 0,96 -0.17,12.16 -7.37,13.43 -17,18.25 0,0 -21,10.97 -21,10.97 0,0 -96,49.52 -96,49.52 0,0 -29,14.57 -29,14.57 0,0 -91,46.95 -91,46.95 0,0 -100,51.48 -100,51.48 0,0 -75,38.4 -75,38.4 0,0 -51,25.78 -51,25.78 -5.27,2.85 -19.44,11.01 -25,10.67 -7.19,-0.44 -6.99,-8.31 -7,-13.59 0,0 0,-110 0,-110 0.01,-3.3 -0.3,-6.98 1.74,-9.79 2.2,-3.05 8.84,-6.16 12.26,-8.07 0,0 28,-15 28,-15 0,0 36,-18.92 36,-18.92 0,0 77,-40.91 77,-40.91 0,0 26,-13.73 26,-13.73 0,0 19,-9.89 19,-9.89 0,0 76,-40 76,-40 0,0 35,-18.55 35,-18.55 8.72,-4.83 23.06,-13.02 32,-16.14 z M 2013,1053 c 0,0 -43,21.75 -43,21.75 0,0 -98,49.99 -98,49.99 0,0 -230,117.48 -230,117.48 0,0 -86,44.03 -86,44.03 -5.81,2.9 -22.84,10.76 -25.57,15.93 -1.31,2.49 -1.39,6.06 -1.43,8.82 0,0 0,77 0,77 0,3.05 -0.19,7.09 1.31,9.82 2.9,5.23 19.81,12.99 25.69,15.93 0,0 63,32.47 63,32.47 0,0 21,10.64 21,10.64 0,0 67,34.4 67,34.4 0,0 116,59 116,59 0,0 133,68.01 133,68.01 0,0 36,17.98 36,17.98 0,0 22,10.75 22,10.75 0,0 0,-97 0,-97 -0.02,-13.6 -5.93,-13.32 -17,-19.31 0,0 -33,-17.55 -33,-17.55 0,0 -93,-48.92 -93,-48.92 0,0 -72,-37.97 -72,-37.97 0,0 -44,-22.99 -44,-22.99 0,0 -61,-31.95 -61,-31.95 0,0 -24,-12.62 -24,-12.62 -3.18,-1.79 -7.67,-4.55 -7.78,-8.69 -0.12,-4.37 4.51,-6.94 7.78,-8.77 0,0 24,-12.48 24,-12.48 0,0 105,-55 105,-55 0,0 69,-36.44 69,-36.44 0,0 96,-50.62 96,-50.62 0,0 31,-16.45 31,-16.45 4.07,-2.07 13.95,-7.1 16.57,-10.34 2.76,-3.42 2.42,-6.79 2.43,-10.9 0,0 0,-80 0,-80 z m 774,0 c -1.93,4.87 -1,23.62 -1,30 0,0 0,67 0,67 0,2.8 -0.21,6.39 1.17,8.9 2.2,3.97 12.57,8.69 16.83,10.86 0,0 40,21.24 40,21.24 0,0 18,9.31 18,9.31 0,0 58,30.47 58,30.47 0,0 119,62.96 119,62.96 0,0 76,39.56 76,39.56 0,0 17.98,9.66 17.98,9.66 2.38,1.62 4.88,3.93 4.88,7.04 0,3.92 -3.91,6.54 -6.86,8.38 0,0 -24,12.62 -24,12.62 0,0 -38,19.78 -38,19.78 0,0 -68,35.47 -68,35.47 0,0 -32,16.97 -32,16.97 0,0 -87,45.56 -87,45.56 0,0 -45,23.96 -45,23.96 0,0 -32,17 -32,17 -4.45,2.3 -15.54,7.24 -17.83,11.36 -1.38,2.51 -1.17,6.1 -1.17,8.9 0,0 0,97 0,97 0,0 37,-18.22 37,-18.22 0,0 82,-41.52 82,-41.52 0,0 76,-39 76,-39 0,0 114,-58 114,-58 0,0 64,-32.84 64,-32.84 0,0 27,-13.68 27,-13.68 0,0 58,-29.99 58,-29.99 5.81,-2.9 21.93,-10.08 25.07,-14.93 1.78,-2.76 1.89,-6.64 1.93,-9.82 0,0 0,-76 0,-76 -0.01,-3.69 0.15,-8.61 -1.93,-11.82 -3.14,-4.82 -20.23,-12.51 -26.07,-15.43 0,0 -57,-29.49 -57,-29.49 0,0 -27,-13.68 -27,-13.68 0,0 -27,-13.84 -27,-13.84 0,0 -45,-23.48 -45,-23.48 0,0 -45,-22.52 -45,-22.52 0,0 -186,-95.48 -186,-95.48 0,0 -50,-25.01 -50,-25.01 z"
     style="fill:${OUTLINE};fill-opacity:1;opacity:1" />
  <path
     id="background"
     d="M 0.00,1350.00            C 0.00,1350.00 0.00,2700.00 0.00,2700.00              0.00,2700.00 2400.00,2700.00 2400.00,2700.00              2400.00,2700.00 4800.00,2700.00 4800.00,2700.00              4800.00,2700.00 4800.00,1350.00 4800.00,1350.00              4800.00,1350.00 4800.00,0.00 4800.00,0.00              4800.00,0.00 2400.00,0.00 2400.00,0.00              2400.00,0.00 0.00,0.00 0.00,0.00              0.00,0.00 0.00,1350.00 0.00,1350.00 Z            M 2639.12,845.12            C 2640.12,846.62 2618.38,906.25 2547.12,1097.25              2495.75,1234.75 2453.75,1347.75 2453.75,1348.38              2453.75,1349.12 2453.00,1351.25 2452.00,1353.25              2451.00,1355.25 2410.00,1467.12 2360.88,1601.88              2311.75,1736.62 2270.50,1849.25 2269.38,1852.12              2269.38,1852.12 2267.25,1857.50 2267.25,1857.50              2267.25,1857.50 2214.25,1857.50 2214.25,1857.50              2214.25,1857.50 2161.25,1857.50 2161.25,1857.50              2161.25,1857.50 2160.62,1854.62 2160.62,1854.62              2160.12,1852.75 2190.62,1769.50 2252.62,1603.75              2303.50,1467.25 2386.88,1241.38 2437.75,1101.88              2488.62,962.25 2531.00,846.88 2532.00,845.25              2532.00,845.25 2533.88,842.50 2533.88,842.50              2533.88,842.50 2585.88,842.75 2585.88,842.75              2632.00,843.12 2638.00,843.37 2639.12,845.12 Z            M 2025.25,1035.87            C 2027.38,1037.75 2027.50,1041.50 2027.50,1101.88              2027.50,1101.88 2027.50,1165.88 2027.50,1165.88              2027.50,1165.88 2024.75,1168.38 2024.75,1168.38              2023.12,1169.75 1945.50,1211.00 1852.25,1260.12              1758.88,1309.12 1682.50,1349.62 1682.50,1350.00              1682.50,1350.38 1758.88,1390.88 1852.25,1439.88              1945.50,1489.00 2023.12,1530.25 2024.75,1531.62              2024.75,1531.62 2027.50,1534.12 2027.50,1534.12              2027.50,1534.12 2027.50,1598.12 2027.50,1598.12              2027.50,1660.87 2027.50,1662.12 2025.00,1664.38              2022.50,1666.62 2022.25,1666.62 2015.25,1663.25              1992.63,1652.25 1521.50,1410.50 1519.75,1409.00              1517.63,1407.25 1517.50,1402.88 1517.50,1350.00              1517.50,1299.87 1517.75,1292.62 1519.38,1291.25              1521.88,1289.12 2020.25,1033.75 2021.75,1033.75              2022.38,1033.75 2024.00,1034.62 2025.25,1035.87 Z            M 3028.75,1161.50            C 3165.88,1231.75 3279.38,1290.25 3281.00,1291.62              3281.00,1291.62 3283.75,1294.12 3283.75,1294.12              3283.75,1294.12 3283.75,1350.00 3283.75,1350.00              3283.75,1350.00 3283.75,1405.88 3283.75,1405.88              3283.75,1405.88 3281.00,1408.38 3281.00,1408.38              3278.75,1410.25 2814.88,1648.62 2784.75,1663.25              2777.75,1666.62 2777.50,1666.62 2775.00,1664.38              2772.50,1662.12 2772.50,1660.87 2772.50,1598.12              2772.50,1598.12 2772.50,1534.12 2772.50,1534.12              2772.50,1534.12 2775.38,1531.62 2775.38,1531.62              2776.88,1530.25 2854.50,1489.00 2947.88,1439.88              3041.12,1390.88 3117.50,1350.38 3117.50,1350.00              3117.50,1349.62 3041.12,1309.12 2947.88,1260.12              2854.50,1211.00 2776.88,1169.75 2775.38,1168.38              2775.38,1168.38 2772.50,1165.88 2772.50,1165.88              2772.50,1165.88 2772.50,1102.12 2772.50,1102.12              2772.50,1044.50 2772.75,1038.12 2774.63,1036.00              2775.75,1034.75 2777.25,1033.75 2778.00,1033.75              2778.75,1033.75 2891.50,1091.25 3028.75,1161.50 Z"
     style="fill:${BACKGROUND};fill-opacity:1" />
  <path
     id="slash"
     d="M 2541.62,855.25            C 2541.00,856.12 2501.12,964.62 2453.25,1096.25              2405.25,1227.88 2323.50,1449.50 2271.50,1588.75              2219.62,1728.00 2176.88,1842.88 2176.50,1844.00              2176.00,1846.12 2178.50,1846.25 2216.62,1846.25              2247.62,1846.25 2257.50,1845.87 2258.38,1844.62              2259.00,1843.88 2298.88,1735.38 2346.75,1603.75              2394.75,1472.12 2476.50,1250.50 2528.50,1111.25              2580.38,972.00 2623.12,857.12 2623.50,855.87              2624.00,853.87 2621.50,853.75 2583.38,853.75              2552.38,853.75 2542.50,854.12 2541.62,855.25 Z"
     style="fill:${INSIDE};fill-opacity:1" />
  <path
     id="right-arrow"
     d="m 2785,1105.62 c 0,0 0,54.38 0,54.38 0,0 2.88,1.75 2.88,1.75 5.12,3.25 336.5,177.37 343,180.25 3.75,1.75 6.75,3.88 7.24,5.5 1.51,4.5 -0.62,7.5 -7.24,10.5 -6.5,2.88 -337.88,177 -343,180.25 0,0 -2.88,1.75 -2.88,1.75 0,0 0,54.38 0,54.38 0,0 0,54.37 0,54.37 0,0 3.38,-1.37 3.38,-1.37 3.62,-1.38 475.5,-242.88 480.12,-245.76 0,0 2.75,-1.62 2.75,-1.62 0,0 0,-50 0,-50 0,0 0,-50 0,-50 0,0 -2.75,-1.62 -2.75,-1.62 -4.62,-2.88 -476.62,-244.5 -480.25,-245.88 0,0 -3.25,-1.25 -3.25,-1.25 z"
     style="fill:${INSIDE};fill-opacity:1" />
  <path
     id="left-arrow"
     d="M 2012.50,1052.25            C 2010.38,1052.88 1535.75,1295.75 1531.62,1298.38              1531.62,1298.38 1528.75,1300.00 1528.75,1300.00              1528.75,1300.00 1528.75,1350.00 1528.75,1350.00              1528.75,1350.00 1528.75,1400.00 1528.75,1400.00              1528.75,1400.00 1531.62,1401.62 1531.62,1401.62              1536.12,1404.50 2008.00,1646.00 2011.63,1647.38              2011.63,1647.38 2015.00,1648.75 2015.00,1648.75              2015.00,1648.75 2015.00,1594.38 2015.00,1594.38              2015.00,1594.38 2015.00,1540.00 2015.00,1540.00              2015.00,1540.00 2012.25,1538.25 2012.25,1538.25              2007.00,1535.00 1675.62,1360.88 1669.13,1358.00              1659.00,1353.50 1658.62,1346.62 1668.25,1342.50              1676.00,1339.12 2011.50,1162.50 2013.50,1160.75              2014.62,1159.62 2015.00,1147.50 2014.75,1105.50              2014.38,1058.37 2014.13,1051.75 2012.50,1052.25 Z"
     style="fill:${INSIDE};fill-opacity:1" />
</svg>
