<?xml version="1.0" encoding="UTF-8" standalone="no"?>
<svg
   width="3840"
   height="2160"
   viewBox="0 0 3840 2160"
   version="1.1"
   id="svg1"
   xmlns="http://www.w3.org/2000/svg"
   xmlns:svg="http://www.w3.org/2000/svg">
  <defs
     id="defs1" />
  <rect
     id="background"
     fill="${BACKGROUND}"
     height="100%"
     width="100%" />
  <g
     id="forms"
     fill="${INSIDE}"
     fill-opacity="1"
     stroke="${OUTLINE}"
     stroke-width="20"
     stroke-opacity="1"
     paint-order="markers stroke fill" >
    <path
       id="left-arrow"
       d="M 1620.00,830.01
            C 1620.00,830.01 1620.00,929.97 1620.00,929.97
              1620.00,929.97 1340.00,1080.00 1340.00,1080.00
              1340.00,1080.00 1620.00,1230.00 1620.00,1230.00
              1620.00,1230.00 1619.96,1330.00 1619.96,1330.00
              1619.96,1330.00 1219.96,1130.00 1219.96,1130.00
              1219.96,1130.00 1220.00,1029.96 1220.00,1029.96
              1220.00,1029.96 1620.00,830.01 1620.00,830.01 Z" />
    <path
       id="slash"
       d="M 1725.6719,1482.957
          C 28.8021,0.016 57.6041,0.029 86.4062,0.043
            100.751,-268.665 201.4995,-537.33094 302.25,-805.99609
            -28.8021,-0.0219 -57.6041,-0.0444 -86.4062,-0.0645
            -100.7515,268.67196 -201.4998,537.34519 -302.25,806.01759 Z" />
    <path
       id="right-arrow"
       d="M 2500.04,1080.00
          C 2500.04,1080.00 2220.00,930.00 2220.00,930.00
            2220.00,930.00 2220.00,830.00 2220.00,830.00
            2220.00,830.00 2620.00,1029.98 2620.00,1029.98
            2620.00,1029.98 2619.96,1129.98 2619.96,1129.98
            2619.96,1129.98 2220.00,1330.00 2220.00,1330.00
            2220.00,1330.00 2220.00,1229.98 2220.00,1229.98
            2220.00,1229.98 2500.04,1080.00 2500.04,1080.00 Z" />
  </g>
</svg>
